<?xml version="1.0" encoding="UTF-8"?>
<svg width="171px" height="141px" viewBox="0 0 171 141" version="1.1" xmlns="http://www.w3.org/2000/svg" xmlns:xlink="http://www.w3.org/1999/xlink">
    <!-- Generator: Sketch 61.1 (89650) - https://sketch.com -->
    <title>Group</title>
    <desc>Created with Sketch.</desc>
    <g id="Page-1" stroke="none" stroke-width="1" fill="none" fill-rule="evenodd">
        <g id="Artboard" transform="translate(-274.000000, -118.000000)" fill="#111111" fill-rule="nonzero">
            <g id="Group" transform="translate(272.000000, 118.000000)">
                <path d="M14.0389052,140.08405 C16.4613045,140.08405 18.5602585,139.657377 20.3357671,138.804032 C22.1112757,137.950687 23.4738753,136.708519 24.423566,135.077529 C25.3732566,133.446538 25.8481019,131.516189 25.8481019,129.28648 L25.8481019,129.28648 L25.8481019,109.611367 L18.6015494,109.611367 L18.6015494,129.245189 C18.6015494,131.10328 18.2161677,132.445234 17.4454043,133.271052 C16.6746408,134.09687 15.5391411,134.509779 14.0389052,134.509779 C11.0659606,134.509779 9.53819736,132.865025 9.45561556,129.575516 L9.45561556,129.575516 L9.45561556,109.611367 L2.16777213,109.611367 L2.16777213,129.430998 C2.20906302,132.73427 3.28262636,135.335597 5.38846214,137.234978 C7.49429792,139.134359 10.3777789,140.08405 14.0389052,140.08405 Z M37.6160078,139.671141 L37.6160078,120.966364 L48.2690594,139.671141 L55.474321,139.671141 L55.474321,109.611367 L48.2484139,109.611367 L48.2484139,128.316144 L37.6160078,109.611367 L30.3694552,109.611367 L30.3694552,139.671141 L37.6160078,139.671141 Z M67.3041632,139.671141 L67.3041632,127.696781 L78.9894872,127.696781 L78.9894872,122.122509 L67.3041632,122.122509 L67.3041632,115.206284 L80.1662778,115.206284 L80.1662778,109.611367 L60.0576106,109.611367 L60.0576106,139.671141 L67.3041632,139.671141 Z M95.5264917,140.08405 C98.0865274,140.08405 100.367849,139.475009 102.370458,138.256928 C104.373067,137.038846 105.918034,135.301188 107.005361,133.043952 C108.092688,130.786716 108.636352,128.192271 108.636352,125.260618 L108.636352,125.260618 L108.636352,123.877373 C108.622588,120.98701 108.06172,118.423533 106.953748,116.186943 C105.845775,113.950353 104.293926,112.226458 102.298199,111.015258 C100.302472,109.804058 98.0314728,109.198458 95.4852008,109.198458 C92.9114015,109.198458 90.6163158,109.81094 88.5999436,111.035903 C86.5835715,112.260867 85.0351628,113.998525 83.9547176,116.248879 C82.8742725,118.499233 82.3340499,121.097119 82.3340499,124.042536 L82.3340499,124.042536 L82.3340499,125.735463 C82.3891044,128.570771 82.9706179,131.082634 84.0785903,133.271052 C85.1865628,135.459469 86.7315305,137.142073 88.7134936,138.318864 C90.6954567,139.495655 92.9664561,140.08405 95.5264917,140.08405 Z M95.5264917,134.427197 C93.5995832,134.427197 92.1475199,133.635788 91.170302,132.05297 C90.1930841,130.470153 89.7044751,128.206035 89.7044751,125.260618 L89.7044751,125.260618 L89.7251206,123.051555 C89.9315751,117.601156 91.8516018,114.875957 95.4852008,114.875957 C97.3432912,114.875957 98.7712681,115.650161 99.7691314,117.19857 C100.766995,118.746979 101.265926,121.014537 101.265926,124.001245 L101.265926,124.001245 L101.265926,125.38449 C101.252163,128.30238 100.74979,130.538971 99.7588087,132.094261 C98.7678272,133.649552 97.3570548,134.427197 95.5264917,134.427197 Z M119.61973,139.671141 L119.61973,129.05938 L123.542366,129.05938 L128.848246,139.671141 L136.610935,139.671141 L136.610935,139.361459 L130.334718,127.242581 C132.137754,126.389236 133.462504,125.274381 134.308967,123.898018 C135.155431,122.521655 135.578662,120.787437 135.578662,118.695365 C135.578662,115.805002 134.573917,113.568412 132.564427,111.985594 C130.554937,110.402776 127.767801,109.611367 124.20302,109.611367 L124.20302,109.611367 L112.373178,109.611367 L112.373178,139.671141 L119.61973,139.671141 Z M124.20302,123.464464 L119.61973,123.464464 L119.61973,115.206284 L124.20302,115.206284 C125.56562,115.206284 126.597892,115.574461 127.299837,116.310816 C128.001783,117.04717 128.352755,118.062238 128.352755,119.356019 C128.352755,120.649801 128.005224,121.657987 127.31016,122.380578 C126.615097,123.103168 125.579383,123.464464 124.20302,123.464464 L124.20302,123.464464 Z M147.20205,139.671141 L147.20205,132.651688 L146.500105,118.261811 L153.787948,139.671141 L158.577692,139.671141 L165.84489,118.282456 L165.142945,132.651688 L165.142945,139.671141 L172.410143,139.671141 L172.410143,109.611367 L162.871946,109.611367 L156.18282,130.525207 L149.473049,109.611367 L139.955498,109.611367 L139.955498,139.671141 L147.20205,139.671141 Z" id="UNFORM"></path>
                <g id="noun_Bricks_1763963" transform="translate(32.214765, 0.000000)">
                    <path d="M41.8149696,0.101521432 C41.236632,0.101521432 40.6820291,0.33148839 40.2732819,0.740624128 C39.8645347,1.14975987 39.6351607,1.70457313 39.635666,2.28289658 L39.635666,17.5334076 C39.635666,18.7369179 40.6114303,19.7126412 41.8149696,19.7126412 L74.5044907,19.7126412 C75.0828252,19.7131468 75.6376495,19.4837808 76.0467948,19.0750472 C76.4559401,18.6663136 76.6859194,18.1117284 76.6859194,17.5334076 L76.6859194,2.28289658 C76.6864253,1.70420478 76.4567597,1.14906907 76.0475527,0.739872102 C75.6383456,0.330675135 75.0831965,0.101015274 74.5044907,0.101521432 L41.8149696,0.101521432 Z M43.9963975,4.46217053 L72.3251879,4.46217053 L72.3251879,15.3520333 L43.9963975,15.3520333 L43.9963975,4.46217053 Z M22.1970015,22.9857932 C20.9934628,22.9857932 20.0176995,23.9615162 20.0176995,25.1650259 L20.0176995,40.4154957 C20.0171942,40.9938189 20.246568,41.5486319 20.6553148,41.9577676 C21.0640617,42.3669033 21.6186642,42.59687 22.1970015,42.59687 L54.8865197,42.59687 C55.4648573,42.59687 56.0194602,42.3669039 56.4282074,41.9577682 C56.8369546,41.5486324 57.0663287,40.9938192 57.0658233,40.4154957 L57.0658233,25.1650259 C57.0658233,23.9615156 56.090059,22.9857932 54.8865197,22.9857932 L22.1970015,22.9857932 Z M61.4265531,22.9857923 C60.8482185,22.9852867 60.2933943,23.2146527 59.884249,23.6233863 C59.4751037,24.0321199 59.2451244,24.5867051 59.2451244,25.1650259 L59.2451244,40.4154957 C59.2446185,40.9941875 59.4742841,41.5493232 59.8834911,41.9585202 C60.2926981,42.3677172 60.8478473,42.597377 61.4265531,42.5968709 L94.1160741,42.5968709 C94.6944117,42.5968709 95.2490147,42.3669039 95.6577619,41.9577682 C96.0665091,41.5486324 96.2958831,40.9938192 96.2953777,40.4154957 L96.2953777,25.1650259 C96.2953777,23.9615156 95.3196135,22.9857923 94.1160741,22.9857923 L61.4265531,22.9857923 Z M24.3763031,27.3464002 L52.707221,27.3464002 L52.707221,38.236263 L24.3763031,38.236263 L24.3763031,27.3464002 Z M63.6058559,27.3464002 L91.9346463,27.3464002 L91.9346463,38.236263 L63.6058559,38.236263 L63.6058559,27.3464002 Z M2.58754562,45.870022 C1.38648143,45.8689606 0.410919827,46.8397457 0.406116123,48.0407718 L0.406116123,63.2997666 C0.406116123,63.8780877 0.636094823,64.4326732 1.04524048,64.8414068 C1.45438614,65.2501405 2.0092108,65.4795063 2.58754562,65.4790002 L35.2770654,65.4790002 C36.4806048,65.4790002 37.4563682,64.503277 37.4563682,63.2997666 L37.4563682,48.0407718 C37.4515674,46.8405759 36.4772998,45.870022 35.2770654,45.870022 L2.58754562,45.870022 Z M41.8149696,45.870022 C40.6147352,45.870022 39.6404677,46.8405759 39.6356669,48.0407718 L39.6356669,63.2997666 C39.6356669,64.503277 40.6114303,65.4790002 41.8149696,65.4790002 L74.5044907,65.4790002 C75.0828252,65.4795058 75.6376495,65.2501398 76.0467948,64.8414062 C76.4559401,64.4326726 76.6859185,63.8780874 76.6859185,63.2997666 L76.6859185,48.0407718 C76.6811148,46.8397464 75.7055542,45.8689615 74.5044907,45.870022 L41.8149696,45.870022 Z M4.76684675,50.2221461 L33.0956368,50.2221461 L33.0956368,61.1204927 L4.76684675,61.1204927 L4.76684675,50.2221461 Z M43.9963975,50.2221461 L72.3251879,50.2221461 L72.3251879,61.1204927 L43.9963975,61.1204927 L43.9963975,50.2221461 Z M22.1970015,68.7457276 C20.9934467,68.7457276 20.0177004,69.7214757 20.0177004,70.9250015 L20.0177004,86.1839963 C20.0177004,87.387506 20.9934628,88.3632291 22.1970015,88.3632291 L54.8865197,88.3632291 C56.090059,88.3632291 57.0658225,87.3875067 57.0658225,86.1839963 L57.0658225,70.9250015 C57.0658225,69.7214751 56.0900751,68.7457276 54.8865197,68.7457276 L22.1970015,68.7457276 Z M61.4265531,68.7457267 C60.8482114,68.7452211 60.2933809,68.9745928 59.8842344,69.3833353 C59.475088,69.7920778 59.2451252,70.3466736 59.2451252,70.9250015 L59.2451252,86.1839963 C59.2451252,86.7623171 59.4751037,87.3169023 59.884249,87.7256359 C60.2933943,88.1343695 60.8482185,88.3637356 61.4265531,88.3632299 L94.1160741,88.3632299 C95.3196135,88.3632299 96.2953769,87.3875067 96.2953769,86.1839963 L96.2953769,70.9250015 C96.2953769,69.7214751 95.3196296,68.7457267 94.1160741,68.7457267 L61.4265531,68.7457267 Z M24.3763031,73.1042343 L52.707221,73.1042343 L52.707221,84.0047636 L24.3763031,84.0047636 L24.3763031,73.1042343 Z M63.6058559,73.1042343 L91.9346463,73.1042343 L91.9346463,84.0047636 L63.6058559,84.0047636 L63.6058559,73.1042343 Z" id="Shape"></path>
                </g>
            </g>
        </g>
    </g>
</svg>
